<svg xmlns="http://www.w3.org/2000/svg" viewBox="0 0 352.62 88.77"><defs><style>.cls-1{fill:#1a428a;}.cls-2{fill:#ffc629;}</style></defs><title>Asset 2</title><g id="Layer_2" data-name="Layer 2"><g id="Layer_1-2" data-name="Layer 1"><rect class="cls-1" width="352.62" height="88.77"/><rect class="cls-2" x="77.68" y="4.52" width="270.81" height="79.62"/><g id="_Group_" data-name="&lt;Group&gt;"><path id="_Compound_Path_" data-name="&lt;Compound Path&gt;" class="cls-1" d="M178.89,60.64c2.23,0,3.72,1.68,3.72,4.19v4.66a.13.13,0,0,1-.12.12h-2.18a.12.12,0,0,1-.12-.12V64.85a1.81,1.81,0,0,0-1.84-2h0a2,2,0,0,0-1.91,2v4.7a.13.13,0,0,1-.12.12h-2.17a.13.13,0,0,1-.12-.12V60.87a.13.13,0,0,1,.12-.12h2.09a.13.13,0,0,1,.13.12v.77a3.77,3.77,0,0,1,2.56-1m33.16,7.41a.11.11,0,0,0,0,.15A5.13,5.13,0,0,0,216,69.64c1.71,0,3-.64,3.53-1.76a2.56,2.56,0,0,0,.24-1.1c0-2.27-2-2.69-3.74-2.8-1.39-.08-1.39-.56-1.39-.72,0-.57.94-.64,1.34-.64a2.71,2.71,0,0,1,1.85.6.13.13,0,0,0,.18,0l1.23-1.4a.12.12,0,0,0,0-.17,4.71,4.71,0,0,0-3.27-1,4.87,4.87,0,0,0-2.42.59,2.39,2.39,0,0,0-1.28,2.14c0,1.58,1.28,2.54,3.62,2.71,1.32.08,1.49.45,1.49.77,0,.48-.64.72-1.27.72h0a4,4,0,0,1-2.65-1,.13.13,0,0,0-.19,0Zm-21.86-1.46a2.4,2.4,0,0,0,.52-1.59,2.32,2.32,0,1,0-2.35,2.34,2.49,2.49,0,0,0,1.83-.75m.46-5.73a.12.12,0,0,1,.13-.12h2.15a.12.12,0,0,1,.13.12v8.63a.13.13,0,0,1-.13.12h-2.15a.13.13,0,0,1-.13-.12v-.65a3.39,3.39,0,0,1-2.43.71h-.14a4.47,4.47,0,0,1-3.17-1.15A4.53,4.53,0,0,1,183.64,65a4.2,4.2,0,0,1,4.49-4.46h0a3.92,3.92,0,0,1,2.48.65ZM163.86,58.6V56.52a.16.16,0,0,0-.16-.15h-7.84a.15.15,0,0,0-.15.15V69.46a.15.15,0,0,0,.15.15H158a.15.15,0,0,0,.15-.15V64.18a.15.15,0,0,1,.16-.15h3.94a.16.16,0,0,0,.16-.15V61.8a.16.16,0,0,0-.16-.15h-3.94a.16.16,0,0,1-.16-.15V58.9a.16.16,0,0,1,.16-.15h5.41a.16.16,0,0,0,.16-.15M210,66.84a.12.12,0,0,0-.17,0,2.39,2.39,0,0,1-1.48.53,2.27,2.27,0,0,1,0-4.53,2.39,2.39,0,0,1,1.48.53.12.12,0,0,0,.17,0l1.4-1.45a.12.12,0,0,0,0-.17,4.17,4.17,0,0,0-3.07-1.19,4.55,4.55,0,1,0,0,9.09,4.16,4.16,0,0,0,3.07-1.18.13.13,0,0,0,0-.18Zm-11.26,2.77a.13.13,0,0,0,.13-.12V67.56a.12.12,0,0,0-.13-.12h-1.07c-.63,0-.91-.33-.91-1v-3.3h2a.12.12,0,0,0,.13-.12V60.88a.12.12,0,0,0-.13-.12h-2V58.88a.12.12,0,0,0-.12-.12h-2.18a.12.12,0,0,0-.13.12v7.56a2.89,2.89,0,0,0,3.18,3.17h1.2Zm-28.88-3a2.4,2.4,0,0,0,.52-1.59A2.32,2.32,0,1,0,168,67.34a2.49,2.49,0,0,0,1.83-.75m.46-5.73a.12.12,0,0,1,.13-.12h2.15a.12.12,0,0,1,.13.12v8.63a.13.13,0,0,1-.13.12h-2.15a.13.13,0,0,1-.13-.12v-.65a3.39,3.39,0,0,1-2.43.71h-.14a4.47,4.47,0,0,1-3.17-1.15A4.53,4.53,0,0,1,163.28,65a4.2,4.2,0,0,1,4.49-4.46h0a3.92,3.92,0,0,1,2.48.65Zm29.86,8.75h2.18a.12.12,0,0,0,.12-.12V60.86a.12.12,0,0,0-.12-.12h-2.18a.12.12,0,0,0-.12.12v8.63a.12.12,0,0,0,.12.12m2.45-11.5a1.34,1.34,0,0,0-2.68,0,1.34,1.34,0,0,0,2.68,0"/><path id="_Compound_Path_2" data-name="&lt;Compound Path&gt;" class="cls-1" d="M152,53.88l-2.25,3.44a.18.18,0,0,1-.22.07c-5.21-2.57-11.23,2.15-16.53,1a.17.17,0,0,1-.12-.08l-3.43-5.17a.23.23,0,0,1,.25-.35,32.14,32.14,0,0,0,4,.65c8.05.42,12.41-4.32,18.25.17A.17.17,0,0,1,152,53.88Zm-6.58,9.86a.1.1,0,0,0,.12,0l2.74-4.16a.09.09,0,0,0,0-.14c-4-1.33-7.66,1.23-13.3,1.37a.23.23,0,0,0-.19.36l6.09,9.22a.14.14,0,0,0,.27-.08l-1.31-5.85c0-.05,0-.09.08-.11.47-.17,3.92-1.32,5.55-.58Z"/></g><path class="cls-1" d="M233,69.28H224.4V57.91h8.52v1.77h-6.66v3.07h6.39v1.69h-6.39v3H233Z"/><path class="cls-1" d="M240,61.27H242v0l-2.75,3.88,2.93,4v0h-2.06l-2-2.91-2,2.91h-2.06v0l2.93-4-2.75-3.88v0h2.06l1.82,2.86Z"/><path class="cls-1" d="M243.57,73V61.27h1.6l.1,1.3a3,3,0,0,1,1.26-1.09,3.69,3.69,0,0,1,1.62-.37,4.37,4.37,0,0,1,1.68.32,3.91,3.91,0,0,1,1.3.87,3.8,3.8,0,0,1,.85,1.32,4.59,4.59,0,0,1,.3,1.67A4.83,4.83,0,0,1,252,67a4,4,0,0,1-.82,1.33,3.54,3.54,0,0,1-1.3.87,4.54,4.54,0,0,1-1.72.31,5.32,5.32,0,0,1-.78-.06,3.83,3.83,0,0,1-.8-.23,3.54,3.54,0,0,1-.73-.42,2.7,2.7,0,0,1-.57-.64V73ZM248,67.87a2.66,2.66,0,0,0,1-.2,2.58,2.58,0,0,0,.82-.53,2.5,2.5,0,0,0,.54-.81,2.75,2.75,0,0,0,.19-1A2.41,2.41,0,0,0,248,62.74a2.76,2.76,0,0,0-1.07.19,2.26,2.26,0,0,0-.8.54,2.43,2.43,0,0,0-.52.82,2.73,2.73,0,0,0-.18,1,2.58,2.58,0,0,0,.19,1,2.42,2.42,0,0,0,.53.82,2.38,2.38,0,0,0,.81.55A2.54,2.54,0,0,0,248,67.87Z"/><path class="cls-1" d="M255.37,65.94a2.11,2.11,0,0,0,.82,1.46A2.91,2.91,0,0,0,258,68a4.18,4.18,0,0,0,1.31-.22,2.47,2.47,0,0,0,1.06-.64l1.11,1a3.54,3.54,0,0,1-.73.6,5.08,5.08,0,0,1-.87.44,5.75,5.75,0,0,1-.95.25,6.43,6.43,0,0,1-1,.08,5.28,5.28,0,0,1-1.83-.3,4,4,0,0,1-1.38-.85,3.86,3.86,0,0,1-.88-1.34,4.7,4.7,0,0,1-.32-1.75,4.37,4.37,0,0,1,.32-1.68,3.94,3.94,0,0,1,.87-1.33,4.27,4.27,0,0,1,1.35-.86,4.91,4.91,0,0,1,1.75-.3,5.15,5.15,0,0,1,1.8.3,3.52,3.52,0,0,1,1.36.9,3.6,3.6,0,0,1,.81,1.51,6,6,0,0,1,.14,2.13Zm5-1.42a1.92,1.92,0,0,0-.73-1.45,2.75,2.75,0,0,0-1.69-.48,2.81,2.81,0,0,0-1.64.48,2.21,2.21,0,0,0-.89,1.45Z"/><path class="cls-1" d="M265.33,61.27l.11,1.06a2.14,2.14,0,0,1,1.1-1,3.68,3.68,0,0,1,1.3-.23,3.58,3.58,0,0,1,1.14.18,2.57,2.57,0,0,1,.88.5l-.77,1.46a3,3,0,0,0-.64-.37,2.39,2.39,0,0,0-.81-.12,2.6,2.6,0,0,0-.84.14A1.94,1.94,0,0,0,265.62,64a2.38,2.38,0,0,0-.18,1v4.34h-1.7v-8Z"/><path class="cls-1" d="M270.82,58.92a.88.88,0,0,1,.34-.77,1.18,1.18,0,0,1,1.45,0,.9.9,0,0,1,.33.77.92.92,0,0,1-.33.78,1.14,1.14,0,0,1-1.45,0A.9.9,0,0,1,270.82,58.92Zm1.91,2.32v8H271v-8Z"/><path class="cls-1" d="M276.32,65.94a2.11,2.11,0,0,0,.82,1.46A2.91,2.91,0,0,0,279,68a4.18,4.18,0,0,0,1.31-.22,2.47,2.47,0,0,0,1.06-.64l1.11,1a3.54,3.54,0,0,1-.73.6,5.08,5.08,0,0,1-.87.44,6,6,0,0,1-.95.25,6.65,6.65,0,0,1-1,.08,5.24,5.24,0,0,1-1.83-.3,4,4,0,0,1-1.38-.85,3.88,3.88,0,0,1-.89-1.34,4.7,4.7,0,0,1-.31-1.75,4.37,4.37,0,0,1,.31-1.68,4,4,0,0,1,.88-1.33,4.27,4.27,0,0,1,1.35-.86,4.91,4.91,0,0,1,1.75-.3,5.15,5.15,0,0,1,1.8.3,3.49,3.49,0,0,1,1.35.9,3.73,3.73,0,0,1,.82,1.51,6,6,0,0,1,.14,2.13Zm5-1.42a1.92,1.92,0,0,0-.73-1.45,2.77,2.77,0,0,0-1.69-.48,2.81,2.81,0,0,0-1.64.48,2.21,2.21,0,0,0-.89,1.45Z"/><path class="cls-1" d="M290.88,69.28V65a2.49,2.49,0,0,0-.57-1.69,2.07,2.07,0,0,0-1.63-.65,2.2,2.2,0,0,0-.94.2,2.24,2.24,0,0,0-.72.53,2.33,2.33,0,0,0-.46.78,2.64,2.64,0,0,0-.17.93v4.19h-1.7v-8h1.55l.1,1.17a3.55,3.55,0,0,1,2.75-1.32,3.85,3.85,0,0,1,1.38.25,3.14,3.14,0,0,1,1.11.74,3.45,3.45,0,0,1,.75,1.21A4.76,4.76,0,0,1,292.6,65v4.3Z"/><path class="cls-1" d="M301.69,68.26a4.16,4.16,0,0,1-1.45,1,4.59,4.59,0,0,1-1.64.29,5.13,5.13,0,0,1-1.67-.27,3.79,3.79,0,0,1-2.3-2.11,5.09,5.09,0,0,1,0-3.66,3.8,3.8,0,0,1,.93-1.31,4,4,0,0,1,1.36-.8,5.1,5.1,0,0,1,1.68-.26,4.41,4.41,0,0,1,1.56.27,4.29,4.29,0,0,1,1.38.91l-1.07,1.09a2.64,2.64,0,0,0-.89-.51,2.76,2.76,0,0,0-1-.17,2.88,2.88,0,0,0-1,.18,2.61,2.61,0,0,0-.84.53,2.49,2.49,0,0,0-.56.82A2.85,2.85,0,0,0,296,65.3a2.89,2.89,0,0,0,.2,1.11,2.52,2.52,0,0,0,.57.82,2.27,2.27,0,0,0,.82.49,3.24,3.24,0,0,0,2,0,2.16,2.16,0,0,0,.9-.57Z"/><path class="cls-1" d="M304.29,65.94a2.11,2.11,0,0,0,.82,1.46A2.91,2.91,0,0,0,307,68a4.14,4.14,0,0,0,1.31-.22,2.47,2.47,0,0,0,1.06-.64l1.11,1a3.54,3.54,0,0,1-.73.6,5.08,5.08,0,0,1-.87.44,5.75,5.75,0,0,1-.95.25,6.43,6.43,0,0,1-1,.08,5.28,5.28,0,0,1-1.83-.3,4,4,0,0,1-1.38-.85,3.86,3.86,0,0,1-.88-1.34,4.7,4.7,0,0,1-.32-1.75,4.37,4.37,0,0,1,.32-1.68,3.94,3.94,0,0,1,.87-1.33,4.27,4.27,0,0,1,1.35-.86,4.91,4.91,0,0,1,1.75-.3,5.15,5.15,0,0,1,1.8.3,3.52,3.52,0,0,1,1.36.9,3.6,3.6,0,0,1,.81,1.51,6,6,0,0,1,.14,2.13Zm5-1.42a1.92,1.92,0,0,0-.73-1.45,2.75,2.75,0,0,0-1.69-.48,2.81,2.81,0,0,0-1.64.48,2.21,2.21,0,0,0-.89,1.45Z"/><path class="cls-1" d="M125.5,67h-6.27l-1.1,2.39h-2L121.36,58h2l5.2,11.37h-2Zm-3.13-7.06-2.45,5.41h4.9Z"/><path class="cls-1" d="M107.9,38.82l-.79-3.18h4.06l2.1-10.83h1l-3.9,14Zm-12.2,0-3.82-14h1.24l2.07,10.83H99l-.82,3.18Zm5.5-10.88.64-3.13h2.53l.7,3.13Z"/><polygon class="cls-1" points="117.73 22.19 111.1 22.19 109 33.01 108.89 33.01 106.47 22.19 99.7 22.19 97.47 33.01 97.36 33.01 95.3 22.19 88.44 22.19 93.69 41.44 100.22 41.44 103.02 30.56 103.13 30.56 105.85 41.44 112.38 41.44 117.73 22.19 117.73 22.19"/><path class="cls-1" d="M133.76,38.82l-.9-2.53h.22l-3.74-11.48h.31l5.46,14Zm-12.93,0,5.52-14h.15l-3.81,11.48h.1l-.85,2.53Z"/><path class="cls-1" d="M131.44,22.19h-6.88L117,41.44h6.86l1-2.83h6.12l1,2.83h7l-7.51-19.25Zm-5.11,11.47,1.58-4.76,1.55,4.76Z"/><path class="cls-1" d="M152,38.82l-3.18-6h0l.49-.1,3.78,6Zm-9.1,0v-14h1V33H144v5.87Zm8.82-7.5.18-.23a4,4,0,0,0,.73-2.38,4.1,4.1,0,0,0-.59-2.21,3.88,3.88,0,0,0-1.53-1.4,3.79,3.79,0,0,0-.42-.18,6.35,6.35,0,0,1,.76.13,4.28,4.28,0,0,1,1.59.63,2.71,2.71,0,0,1,.93,1,3.59,3.59,0,0,1,.35,1.74,2.84,2.84,0,0,1-1.82,2.8Z"/><path class="cls-1" d="M148.6,22.19h-8.29V41.44h6.28V34.56h.19l3.69,6.88h7.44L153,33.64a5.42,5.42,0,0,0,3.36-5.2,6.06,6.06,0,0,0-.68-3,5.34,5.34,0,0,0-1.78-1.93,7.11,7.11,0,0,0-2.5-1,14,14,0,0,0-2.82-.28Zm-2.06,8.13v-3.1h1.54a5,5,0,0,1,.64,0,2,2,0,0,1,.65.19,1.24,1.24,0,0,1,.49.45,1.56,1.56,0,0,1,.19.81,1.36,1.36,0,0,1-.23.83,1.66,1.66,0,0,1-.57.49,2,2,0,0,1-.73.23,4.74,4.74,0,0,1-.71.06Z"/><path class="cls-1" d="M171.46,38.82l-3.18-6h0l.49-.1,3.78,6Zm-9.1,0v-14h1V33h0v5.87Zm8.82-7.5.18-.23a4,4,0,0,0,.73-2.38,4.1,4.1,0,0,0-.59-2.21A3.88,3.88,0,0,0,170,25.1a3.79,3.79,0,0,0-.42-.18,6.35,6.35,0,0,1,.76.13,4.28,4.28,0,0,1,1.59.63,2.71,2.71,0,0,1,.93,1,3.59,3.59,0,0,1,.35,1.74,2.84,2.84,0,0,1-1.82,2.8Z"/><path class="cls-1" d="M168,22.19h-8.29V41.44H166V34.56h.19l3.69,6.88h7.44l-4.89-7.8a5.42,5.42,0,0,0,3.36-5.2,6.06,6.06,0,0,0-.68-3,5.34,5.34,0,0,0-1.78-1.93,7.11,7.11,0,0,0-2.5-1,14,14,0,0,0-2.82-.28ZM166,30.32v-3.1h1.54a5,5,0,0,1,.64,0,2,2,0,0,1,.65.19,1.24,1.24,0,0,1,.49.45,1.56,1.56,0,0,1,.19.81,1.36,1.36,0,0,1-.23.83,1.66,1.66,0,0,1-.57.49,2,2,0,0,1-.73.23,4.74,4.74,0,0,1-.71.06Z"/><rect class="cls-1" x="181.78" y="24.81" width="1.27" height="14"/><polygon class="cls-1" points="185.68 22.19 179.15 22.19 179.15 41.44 185.68 41.44 185.68 22.19 185.68 22.19"/><path class="cls-1" d="M199.09,39.36a9.33,9.33,0,0,1-3.32-.57,7.3,7.3,0,0,1-2.51-1.53,6.91,6.91,0,0,1-1.63-2.37,8.08,8.08,0,0,1-.61-3.18,7.73,7.73,0,0,1,.6-3.13,6.59,6.59,0,0,1,1.61-2.28,7.4,7.4,0,0,1,2.5-1.48,9.83,9.83,0,0,1,3.36-.55,9.67,9.67,0,0,1,3.34.55A7.31,7.31,0,0,1,205,26.31a6.52,6.52,0,0,1,1.62,2.28,7.82,7.82,0,0,1,.6,3.12,8.08,8.08,0,0,1-.61,3.18,6.87,6.87,0,0,1-1.63,2.36,7.54,7.54,0,0,1-2.53,1.54A9.37,9.37,0,0,1,199.09,39.36Zm0-14.42a6.45,6.45,0,0,0-2.55.51,6.16,6.16,0,0,0-3.44,3.65,7.42,7.42,0,0,0-.45,2.61,7.8,7.8,0,0,0,.44,2.63,6.79,6.79,0,0,0,1.29,2.2,6,6,0,0,0,2.12,1.55,6.33,6.33,0,0,0,2.59.54,6.25,6.25,0,0,0,2.58-.54,6.35,6.35,0,0,0,2.08-1.52,6.78,6.78,0,0,0,1.33-2.23,7.8,7.8,0,0,0,.44-2.63,7.42,7.42,0,0,0-.45-2.61,6.22,6.22,0,0,0-1.38-2.23,6.38,6.38,0,0,0-4.6-1.93Z"/><path class="cls-1" d="M199.09,21.64a12.47,12.47,0,0,0-4.25.71,10,10,0,0,0-3.38,2,9.28,9.28,0,0,0-2.25,3.17,10.36,10.36,0,0,0-.81,4.18,10.64,10.64,0,0,0,.81,4.21,9.61,9.61,0,0,0,2.25,3.25,10,10,0,0,0,3.38,2.08,12.55,12.55,0,0,0,8.49,0,10.14,10.14,0,0,0,3.4-2.08A9.64,9.64,0,0,0,209,35.92a10.64,10.64,0,0,0,.81-4.21,10.36,10.36,0,0,0-.81-4.18,9.31,9.31,0,0,0-2.26-3.17,10.15,10.15,0,0,0-3.4-2,12.45,12.45,0,0,0-4.24-.71Zm0,14.36a3.7,3.7,0,0,1-1.53-.31,3.53,3.53,0,0,1-1.21-.88,4.34,4.34,0,0,1-.79-1.36,5.12,5.12,0,0,1-.28-1.74,4.85,4.85,0,0,1,.28-1.7,3.79,3.79,0,0,1,.79-1.31,3.68,3.68,0,0,1,1.21-.83,3.87,3.87,0,0,1,1.53-.3,3.8,3.8,0,0,1,1.51.3,3.89,3.89,0,0,1,1.21.83,3.66,3.66,0,0,1,.8,1.31,4.85,4.85,0,0,1,.28,1.7,5.12,5.12,0,0,1-.28,1.74,4.18,4.18,0,0,1-.8,1.36,3.73,3.73,0,0,1-1.21.88,3.64,3.64,0,0,1-1.51.31Z"/><path class="cls-1" d="M224.26,38.82l-3.19-6h0l.49-.1,3.79,6Zm-9.11,0v-14h1V33h.06v5.87Zm9-7.72a4.3,4.3,0,0,0,.14-4.6,3.81,3.81,0,0,0-1.53-1.4,2.65,2.65,0,0,0-.42-.18,6.88,6.88,0,0,1,.77.13,4.42,4.42,0,0,1,1.59.63,2.79,2.79,0,0,1,.93,1,3.72,3.72,0,0,1,.34,1.74,2.84,2.84,0,0,1-1.82,2.8l-.18.09Z"/><path class="cls-1" d="M220.82,22.19h-8.3V41.44h6.29V34.56H219l3.68,6.88h7.44l-4.89-7.8a5.45,5.45,0,0,0,3.37-5.2,6.17,6.17,0,0,0-.68-3,5.52,5.52,0,0,0-1.78-1.93,7.16,7.16,0,0,0-2.51-1,14,14,0,0,0-2.81-.28Zm-2.07,8.13v-3.1h1.54a5.14,5.14,0,0,1,.65,0,1.91,1.91,0,0,1,.64.19,1.24,1.24,0,0,1,.49.45,1.47,1.47,0,0,1,.19.81,1.36,1.36,0,0,1-.23.83,1.5,1.5,0,0,1-.57.49,2,2,0,0,1-.72.23,4.86,4.86,0,0,1-.72.06Z"/><path class="cls-1" d="M238.25,39.36a10.12,10.12,0,0,1-1.83-.16,10.62,10.62,0,0,1-1.72-.47l-.47-.19.21-.23.27.15a7.86,7.86,0,0,0,3.51.85,5.21,5.21,0,0,0,2-.4,3.43,3.43,0,0,0,1.34-5.21,4.33,4.33,0,0,0-1.36-1.09,13,13,0,0,0-1.38-.6c-.48-.17-1.06-.37-1.77-.6a13.35,13.35,0,0,1-1.51-.63,4.28,4.28,0,0,1-1-.67,2.06,2.06,0,0,1-.5-.73,2.6,2.6,0,0,1-.18-1.12,3.38,3.38,0,0,1,.37-1.72,3.91,3.91,0,0,1,1.12-1.23,5.21,5.21,0,0,1,1.73-.76,9.08,9.08,0,0,1,2.23-.28,8.47,8.47,0,0,1,3,.57l.27.1-.16.16-.29-.13a6.92,6.92,0,0,0-2.78-.65,5.3,5.3,0,0,0-2.26.45,3.33,3.33,0,0,0,0,6.06,12.81,12.81,0,0,0,1.78.68c.67.21,1.34.45,2.06.72a6.56,6.56,0,0,1,1.5.81,3.26,3.26,0,0,1,.9,1,2.2,2.2,0,0,1,.23,1.12,3.78,3.78,0,0,1-.38,1.78,3.89,3.89,0,0,1-1.1,1.3,5.05,5.05,0,0,1-1.7.86A7.44,7.44,0,0,1,238.25,39.36Z"/><path class="cls-1" d="M239.37,21.64a11.74,11.74,0,0,0-2.86.36,7.74,7.74,0,0,0-2.6,1.15A6.55,6.55,0,0,0,232,25.21a6,6,0,0,0-.73,3.05,5.4,5.4,0,0,0,.41,2.2A4.74,4.74,0,0,0,232.8,32a6.47,6.47,0,0,0,1.59,1.11,13,13,0,0,0,1.88.77c.67.22,1.23.41,1.67.58a8.19,8.19,0,0,1,1.05.45,1.61,1.61,0,0,1,.53.39.73.73,0,0,1,.15.46.7.7,0,0,1-.45.71,2.48,2.48,0,0,1-1,.19,5.1,5.1,0,0,1-2.32-.57,6.29,6.29,0,0,1-1.81-1.3l-3.94,4.28a9.86,9.86,0,0,0,1.66,1.18,13.19,13.19,0,0,0,2,.92,12.19,12.19,0,0,0,2.17.59,12.62,12.62,0,0,0,2.3.21,10.16,10.16,0,0,0,2.89-.42,8.1,8.1,0,0,0,2.54-1.28,6.55,6.55,0,0,0,1.82-2.15,6.33,6.33,0,0,0,.69-3,4.65,4.65,0,0,0-.62-2.51A6.13,6.13,0,0,0,244,30.9a9.93,9.93,0,0,0-2.11-1.13c-.76-.29-1.49-.54-2.18-.76a12.17,12.17,0,0,1-1.45-.54.7.7,0,0,1-.45-.65.71.71,0,0,1,.43-.67,2.7,2.7,0,0,1,1.15-.2,4.27,4.27,0,0,1,1.71.42,4.16,4.16,0,0,1,1.61,1.24l4-4.11a10.26,10.26,0,0,0-3.47-2.12,11,11,0,0,0-3.87-.74Z"/><path class="cls-1" d="M264.87,38.94a10,10,0,0,1-1.83-.16,10.34,10.34,0,0,1-1.72-.47l-.48-.19.21-.23.28.15a7.79,7.79,0,0,0,3.51.85,5.11,5.11,0,0,0,2-.4,3.41,3.41,0,0,0,1.33-5.21,4.19,4.19,0,0,0-1.35-1.09,10.82,10.82,0,0,0-1.39-.6c-.47-.17-1-.37-1.76-.6a12.62,12.62,0,0,1-1.51-.63,3.8,3.8,0,0,1-1-.67,2.17,2.17,0,0,1-.51-.73,2.77,2.77,0,0,1-.18-1.12,3.37,3.37,0,0,1,.38-1.72A3.79,3.79,0,0,1,262,24.89a5.16,5.16,0,0,1,1.72-.76,9.22,9.22,0,0,1,2.24-.28,8.42,8.42,0,0,1,2.95.57l.27.1-.15.16-.3-.13A6.87,6.87,0,0,0,266,23.9a5.31,5.31,0,0,0-2.27.45,3.34,3.34,0,0,0,0,6.06,13.89,13.89,0,0,0,1.79.68c.66.21,1.34.45,2.05.72a6.63,6.63,0,0,1,1.51.81,3.26,3.26,0,0,1,.9,1,2.33,2.33,0,0,1,.22,1.12,3.64,3.64,0,0,1-.38,1.78,3.88,3.88,0,0,1-1.09,1.31,5.27,5.27,0,0,1-1.71.85A7.67,7.67,0,0,1,264.87,38.94Z"/><path class="cls-1" d="M266,21.22a11.74,11.74,0,0,0-2.86.36,7.74,7.74,0,0,0-2.6,1.15,6.55,6.55,0,0,0-1.89,2.06,6,6,0,0,0-.73,3.05,5.41,5.41,0,0,0,.4,2.2,4.76,4.76,0,0,0,1.11,1.56A6.47,6.47,0,0,0,261,32.71a13.35,13.35,0,0,0,1.87.77c.68.22,1.23.41,1.68.58a7.4,7.4,0,0,1,1,.45,1.51,1.51,0,0,1,.53.39.73.73,0,0,1,.15.46.7.7,0,0,1-.44.71,2.48,2.48,0,0,1-1,.19,5.06,5.06,0,0,1-2.32-.57,6.15,6.15,0,0,1-1.81-1.3l-3.95,4.28a10.28,10.28,0,0,0,1.66,1.18,13.8,13.8,0,0,0,2,.92,12,12,0,0,0,2.17.59,12.53,12.53,0,0,0,2.3.21,10,10,0,0,0,2.88-.42,8.15,8.15,0,0,0,2.55-1.28,6.55,6.55,0,0,0,1.82-2.15,6.33,6.33,0,0,0,.69-3,4.74,4.74,0,0,0-.62-2.51,6.13,6.13,0,0,0-1.59-1.7,9.5,9.5,0,0,0-2.11-1.13c-.76-.29-1.49-.54-2.18-.76a12.17,12.17,0,0,1-1.45-.54.72.72,0,0,1,0-1.32,2.67,2.67,0,0,1,1.15-.2,4.35,4.35,0,0,1,1.71.42,4.13,4.13,0,0,1,1.6,1.24l4-4.11A10.26,10.26,0,0,0,269.86,22a11,11,0,0,0-3.87-.74Z"/><polygon class="cls-1" points="289.72 38.4 289.72 31.08 279.19 31.08 279.19 38.4 277.97 38.4 277.97 24.39 279.16 24.39 279.16 30.92 289.69 30.92 289.69 24.39 290.94 24.39 290.94 38.4 289.72 38.4"/><polygon class="cls-1" points="293.56 21.77 287.06 21.77 287.06 28.29 281.79 28.29 281.79 21.77 275.34 21.77 275.34 41.02 281.81 41.02 281.81 33.71 287.09 33.71 287.09 41.02 293.56 41.02 293.56 21.77 293.56 21.77"/><path class="cls-1" d="M307,38.94a9.37,9.37,0,0,1-3.32-.57,7.35,7.35,0,0,1-2.5-1.53,6.78,6.78,0,0,1-1.63-2.37,7.91,7.91,0,0,1-.61-3.18,7.73,7.73,0,0,1,.6-3.13,6.59,6.59,0,0,1,1.61-2.28,7.4,7.4,0,0,1,2.5-1.48,10.51,10.51,0,0,1,6.71,0,7.45,7.45,0,0,1,2.52,1.49,6.58,6.58,0,0,1,1.62,2.27,7.91,7.91,0,0,1,.59,3.13,8.08,8.08,0,0,1-.6,3.18,6.76,6.76,0,0,1-1.64,2.36,7.35,7.35,0,0,1-2.53,1.54A9.33,9.33,0,0,1,307,38.94Zm0-14.42a6.4,6.4,0,0,0-2.54.51,6.29,6.29,0,0,0-2.1,1.44A6.39,6.39,0,0,0,301,28.68a7.46,7.46,0,0,0-.45,2.61,7.8,7.8,0,0,0,.44,2.63,7,7,0,0,0,1.29,2.21,6.13,6.13,0,0,0,2.12,1.54,6.3,6.3,0,0,0,7.25-1.52A6.75,6.75,0,0,0,313,33.92a7.8,7.8,0,0,0,.44-2.63,7.42,7.42,0,0,0-.45-2.61,6.18,6.18,0,0,0-1.38-2.23A6.43,6.43,0,0,0,307,24.52Z"/><path class="cls-1" d="M307,21.22a12.45,12.45,0,0,0-4.24.71,10,10,0,0,0-3.39,2,9.26,9.26,0,0,0-2.24,3.17,10.36,10.36,0,0,0-.82,4.18,10.64,10.64,0,0,0,.82,4.21,9.59,9.59,0,0,0,2.24,3.25,10,10,0,0,0,3.39,2.08,12.55,12.55,0,0,0,8.49,0,10.14,10.14,0,0,0,3.4-2.08,9.47,9.47,0,0,0,2.25-3.25,10.47,10.47,0,0,0,.82-4.21,10.19,10.19,0,0,0-.82-4.18,9.15,9.15,0,0,0-2.25-3.17,10.15,10.15,0,0,0-3.4-2,12.47,12.47,0,0,0-4.25-.71Zm0,14.36a3.69,3.69,0,0,1-1.52-.31,3.53,3.53,0,0,1-1.21-.88,4.16,4.16,0,0,1-.79-1.36,5.12,5.12,0,0,1-.28-1.74,4.85,4.85,0,0,1,.28-1.7,3.54,3.54,0,0,1,2-2.14,3.85,3.85,0,0,1,1.52-.3,3.73,3.73,0,0,1,1.51.3,3.68,3.68,0,0,1,1.21.83,3.55,3.55,0,0,1,.81,1.31,4.85,4.85,0,0,1,.28,1.7A5.12,5.12,0,0,1,310.5,33a4,4,0,0,1-.81,1.36,3.53,3.53,0,0,1-1.21.88,3.58,3.58,0,0,1-1.51.31Z"/><path class="cls-1" d="M323,38.4v-14h1.19v14ZM330.46,32c.15-.07.3-.16.46-.25a4,4,0,0,0,1.88-3.49,4,4,0,0,0-.51-2.05,3.78,3.78,0,0,0-1.43-1.43,4.69,4.69,0,0,0-.68-.31l.82.14a4.76,4.76,0,0,1,1.63.68,3.21,3.21,0,0,1,1,1.07,4,4,0,0,1,.35,1.85,3.88,3.88,0,0,1-.36,1.81,3.12,3.12,0,0,1-1,1.14,4.77,4.77,0,0,1-1.63.73Z"/><path class="cls-1" d="M328.68,21.77h-8.27V41h6.45v-6.2h1.82a12.35,12.35,0,0,0,2.92-.35,7.49,7.49,0,0,0,2.53-1.14,5.82,5.82,0,0,0,1.77-2,6.48,6.48,0,0,0,.67-3.05,6.42,6.42,0,0,0-.68-3.11,5.67,5.67,0,0,0-1.8-2,7.34,7.34,0,0,0-2.53-1.06,13.17,13.17,0,0,0-2.88-.31Zm-1.82,8.13V26.8h1.36a3.33,3.33,0,0,1,.7.07,1.88,1.88,0,0,1,.64.23,1.21,1.21,0,0,1,.45.45,1.48,1.48,0,0,1,.16.74,1.32,1.32,0,0,1-.61,1.24,2.51,2.51,0,0,1-1.34.37Z"/><path class="cls-1" d="M66.06,44.71a28,28,0,1,1-28-28,28,28,0,0,1,28,28"/><path class="cls-2" d="M56.37,26.38A25.92,25.92,0,1,0,64,44.71a25.75,25.75,0,0,0-7.59-18.33m-35.66,1A24.53,24.53,0,0,1,60.42,54.75q-4.45-1.5-8.77-3.4l-1.13-.51-1.11-.52-.56-.27-.56-.27-1.1-.56c-.37-.18-.73-.38-1.1-.57l-.55-.29L45,48.07l-1.08-.6-1.07-.63a69.43,69.43,0,0,1-8.16-5.56c-1.29-1-2.55-2.1-3.74-3.23-.59-.57-1.17-1.15-1.73-1.75l-.42-.46-.41-.46L28,34.92l0,0c0-1.8-.07-2.88-.07-2.88l-1.23-.29v1.65h-1V31.65L24.32,32v.63l-.61.33c0,.52,0,1.19,0,2-.5.87-5.94,10.26-10,13.14a24.66,24.66,0,0,1-.23-3.34,24.36,24.36,0,0,1,7.18-17.34m32.2,29.36-2.53.08-2.05-5.33.41.2,1.12.56,1.14.54.32.15Zm-.61-3.34c1,.46,2,.91,3.07,1.33l.85,1.9-2.53.08Zm-2.69,3.45L47,56.92l-2.68-7.61.51.29.55.31,1.1.61.85.45ZM46.27,57,44,57,40.6,47c.52.34,1,.66,1.56,1l1.07.65.14.09Zm-3.07.1-2.41.08-4-12.77c.92.69,1.85,1.35,2.81,2ZM40,57.16l-2.32.08L33,41.28l1,.86c.6.5,1.21,1,1.83,1.46Zm-3.08.1-2.57.09L28.73,37.16c.5.55,1,1.08,1.53,1.6s1.11,1.08,1.68,1.6Zm-3.32.11-2.22.08L28.3,45.59c-.1-3.05-.18-5.88-.25-8.15Zm-3,.1-1.92.07c-.12-2.82-.23-5.78-.33-8.65Zm27.18,1.7c-.16.23-.33.45-.51.67l-28.49-.56V59ZM57,56.59l-.66-1.47c1.08.44,2.17.86,3.26,1.26l-.06.12ZM26.68,38.67v1.51H25.54v1.4h1.14v1.51H25.54v1.4h1.14v2.82H25.54v1.4h1.14v2.91H25.54V53h1.15v4.59l-1.06,0V36.32h1v1H25.54v1.4Zm-11,16.1L18.88,44a57.5,57.5,0,0,0,4.21-6.58L17.36,57.87a24.41,24.41,0,0,1-1.68-3.1m-.45-1.06A24.24,24.24,0,0,1,14,49.27a26.74,26.74,0,0,0,3.7-3.73Zm8.53-16c0,2.17,0,4.78-.08,7.57L20.39,57.82l-2.28.08Zm-.15,10.71c-.08,3.11-.2,6.32-.35,9.31l-2.11.07Zm-4.37,12,3.85.14c-.07,1.19-.16,2.32-.25,3.36A23.6,23.6,0,0,1,20.71,62c-.51-.52-1-1.06-1.47-1.61m18.81,8.79a24.58,24.58,0,0,1-8.8-1.62c-.11-1.68-.22-3.68-.33-5.87L26.69,61v5.47c-.36-.19-.71-.38-1.06-.59V60.66l1.06,0v0h1.14l2.06.08,25.8.91-.31.32a24.36,24.36,0,0,1-17.33,7.18"/></g></g></svg>